<svg width="22" xmlns="http://www.w3.org/2000/svg" height="414" viewBox="51 448 22 414" fill="none"><g data-testid="Path"><path d="m64 448-3 5-2 1-2 4-4 6v1l-1 1v2l-1 2v14l3 6 2 2 1 2 2 1 3 3 1 2 3 2 2 3v2l1 1v7l1 2v11l-2 6v3l-2 4-3 9-5 11-3 11v3l-2 6v3l-1 3v8l1 6v3l2 4 1 4 2 3 8 16 4 9v2l1 3v5l1 3v8l-1 6-1 3v4l-2 8v4l-2 6v3l-1 3v4l-2 4v4l-1 2-6 19-1 7v10l3 7 10 14 4 7 1 1v31l-2 6-1 1-2 4-2 1-2 4-2 2-7 10v9l2 3v2l2 4 1 4 2 4" class="fills"/><g class="strokes"><path d="m64 448-3 5-2 1-2 4-4 6v1l-1 1v2l-1 2v14l3 6 2 2 1 2 2 1 3 3 1 2 3 2 2 3v2l1 1v7l1 2v11l-2 6v3l-2 4-3 9-5 11-3 11v3l-2 6v3l-1 3v8l1 6v3l2 4 1 4 2 3 8 16 4 9v2l1 3v5l1 3v8l-1 6-1 3v4l-2 8v4l-2 6v3l-1 3v4l-2 4v4l-1 2-6 19-1 7v10l3 7 10 14 4 7 1 1v31l-2 6-1 1-2 4-2 1-2 4-2 2-7 10v9l2 3v2l2 4 1 4 2 4" style="fill: none; stroke-width: 1; stroke: rgb(192, 207, 216); stroke-opacity: 1;" class="stroke-shape"/></g></g></svg>